# xmcd
#
# Track frame offsets: 
#        150
#        14271
#        36919
#        53513
#        65420
#        84586
#        98030
#        111356
#        130553
#        141230
#        165346
#        180576
#        192098
#        208853
#
# Disc length: 2940 seconds
#
# Revision: 0
# Processed by: cddbd v1.5.2PL0 Copyright (c) Steve Scherf et al.
# Submitted via: ExactAudioCopy v0.95b4
#
DISCID=b60b7a0e
DTITLE=Marcy Levy Band - The Upside of Being Down
DYEAR=2005
DGENRE=Blues
TTITLE0=Tell Me
TTITLE1=Happiness
TTITLE2=Lay Down Sally
TTITLE3=I Just Wanna Feel Good
TTITLE4=The Upside of Bein' Down...
TTITLE5=Forget About Me
TTITLE6=Sugar Daddy
TTITLE7=Singin' the Blues
TTITLE8=Hold To Your Money
TTITLE9=Love Yourself
TTITLE10=Cotton Candy
TTITLE11=Short, Sharp, Shot
TTITLE12=Ugly Man Blues
TTITLE13=Jellyroll Blues
EXTD=
EXTT0=
EXTT1=
EXTT2=
EXTT3=
EXTT4=
EXTT5=
EXTT6=
EXTT7=
EXTT8=
EXTT9=
EXTT10=
EXTT11=
EXTT12=
EXTT13=
PLAYORDER=
